<svg width="56" height="46" viewBox="0 0 56 46" fill="none" xmlns="http://www.w3.org/2000/svg">
<path d="M27.5108 0C42.7082 0 55.0273 10.2971 55.0273 23V39.1C55.0273 40.93 54.1577 42.685 52.6096 43.979C51.0615 45.273 48.9617 46 46.7724 46H28.8866V35.9099C28.8866 33.6076 29.0545 31.2225 30.4991 29.2629C31.5334 27.8586 32.917 26.6566 34.5559 25.7385C36.1948 24.8204 38.0507 24.2077 39.9978 23.9419L40.5248 23.8706C40.7421 23.8085 40.9306 23.6912 41.0641 23.5351C41.1977 23.379 41.2694 23.1919 41.2694 23C41.2694 22.8081 41.1977 22.621 41.0641 22.4649C40.9306 22.3088 40.7421 22.1915 40.5248 22.1294L39.9978 22.0581C37.1528 21.6697 34.5257 20.5441 32.4874 18.8403C30.449 17.1365 29.1025 14.9406 28.6377 12.5626L28.5524 12.1222C28.4781 11.9406 28.3377 11.7829 28.151 11.6713C27.9642 11.5597 27.7404 11.4997 27.5108 11.4997C27.2812 11.4997 27.0575 11.5597 26.8708 11.6713C26.684 11.7829 26.5437 11.9406 26.4694 12.1222L26.3841 12.5626C26.0662 14.1902 25.3332 15.7415 24.2348 17.1114C23.1364 18.4814 21.6982 19.6378 20.0181 20.5022C17.6736 21.7097 14.8202 21.85 12.0658 21.85H0.0273438C0.746901 9.68185 12.7757 0 27.5108 0Z" fill="#5F6FFF"/>
<path d="M0 24.15H12.0642C14.817 24.15 17.6688 24.2903 20.0117 25.4978C21.8432 26.4417 23.3849 27.7311 24.5135 29.2629C25.9572 31.2225 26.125 33.6076 26.125 35.9099V46H8.25C6.06197 46 3.96354 45.273 2.41637 43.979C0.869194 42.685 0 40.93 0 39.1V24.15ZM55 2.3C55 2.91 54.7103 3.49501 54.1945 3.92635C53.6788 4.35768 52.9793 4.6 52.25 4.6C51.5207 4.6 50.8212 4.35768 50.3055 3.92635C49.7897 3.49501 49.5 2.91 49.5 2.3C49.5 1.69 49.7897 1.10499 50.3055 0.673654C50.8212 0.242321 51.5207 0 52.25 0C52.9793 0 53.6788 0.242321 54.1945 0.673654C54.7103 1.10499 55 1.69 55 2.3Z" fill="#5F6FFF"/>
</svg>
